<svg xmlns="http://www.w3.org/2000/svg" xmlns:xlink="http://www.w3.org/1999/xlink" version="1.1" x="0px" y="0px" viewBox="0 0 100 100" enable-background="new 0 0 100 100" xml:space="preserve"><path d="M88.354,70.683c1.397-0.087,2.575-0.191,3.392-0.294c-0.178-7.617-5.275-24.829-7.367-30.575  c-1.4-3.845-3.687-7.653-6.165-9.541c4.819-1.804,8.257-6.438,8.257-11.886c0-7.015-5.687-12.702-12.702-12.702  c-7.015,0-12.702,5.687-12.702,12.702c0,6.403,4.743,11.685,10.904,12.56c-1.947,2.637-2.796,7.333-2.934,9.549  c-0.257,1.359-0.343,3.013-0.311,4.837c-0.536,0.68-1.067,1.344-1.564,1.972c-0.556,0.703-1.141,1.377-1.729,2.053  c-0.126,0.145-0.403,0.55-0.618,0.657c-0.042-0.07-0.117-0.163-0.275-0.303c-1.729-1.537-2.807-4.43-3.866-6.458  c0.154-0.498,0.245-1.055,0.224-1.544c-0.053-1.223-1.443-1.54-2.089-1.512c-0.646-0.028-1.71,0.289-1.763,1.512  c-0.021,0.476,0.064,1.018,0.211,1.506c-0.06,0.074-0.115,0.158-0.163,0.256c-0.588,1.204-1.231,2.382-1.903,3.542  c-0.388,0.669-0.78,1.341-1.212,1.983c-0.18,0.276-0.367,0.546-0.561,0.812c-0.204,0.461-0.359,0.465-0.465,0.011  c-0.683-0.343-1.503-1.975-1.969-2.616c-0.667-0.918-1.297-1.864-1.902-2.824c-1.101-1.748-2.105-3.551-2.988-5.419  c-0.023-0.05-0.053-0.088-0.079-0.132c-0.029-1.894,0.018-3.819,0.162-5.789c0.479,0.055,0.964,0.09,1.458,0.09  c7.015,0,12.702-5.687,12.702-12.702c0-7.015-5.687-12.702-12.702-12.702c-3.643,0-6.919,1.542-9.235,3.999  c-1.919-3.28-6.48-5.307-9.977-4.012c-3.32,1.229-5.525,4.52-7.009,7.572c-0.848,1.744-1.312,3.718-2.31,5.379  c-0.681,1.134-3.741,5.053-5.311,4.812c-2.207-0.338-2.967,2.47-0.915,3.319c2.93,1.213,6.854,0.481,9.349-1.378  c1.586-1.182,2.824-2.898,3.957-4.501c2.45-3.465,4.431-7.099,8.953-4.69c-0.126,0.717-0.203,1.45-0.203,2.202  c0,4.571,2.423,8.567,6.047,10.804c-2.071,8.118-6.635,15.635-13.171,22.605c-6.366,6.789-13.317,10.163-21.466,14.485  c-0.203,0.108-0.159,0.409,0.069,0.441c6.692,0.936,15.201,4.333,24.243,6.812c-0.008,0.059-0.035,0.111-0.035,0.172  c0,2.204-1.118,5.544-2.303,9.08c-1.035,3.091-2.105,6.287-2.72,9.442c-0.132,0.678,0.311,1.334,0.987,1.466  c0.081,0.017,0.161,0.023,0.24,0.023c0.24,0,0.461-0.083,0.656-0.206c1.956,0.385,5.945,0.201,5.945-0.554  c0-1-0.546-2.128-2.48-2.128c-0.827,0-1.774,0.207-2.587,0.522c0.604-2.575,1.469-5.208,2.328-7.772  c1.23-3.672,2.29-6.864,2.409-9.407c7.364,1.846,15,2.899,22.233,1.377c-4.06-11.413-7.796-21.663-8.955-32.779  c0.687,1.134,1.408,2.247,2.175,3.327c1.016,1.43,2.813,4.712,4.95,4.55c1.278-0.097,2.038-1.461,2.672-2.412  c1.041-1.563,1.954-3.232,2.798-4.915c1.141,2.336,2.435,5.335,4.502,6.738c1.651,1.121,2.703,0.093,3.86-1.157  c0.522-0.563,1.061-1.163,1.604-1.787c0.708,8.145,2.933,17.872,3.626,21.262c1.575,0.212,3.348,0.343,5.175,0.413l1.603,22.151  c-1.726,0.298-2.878,1.195-2.878,2.016c0,1,9.64,1,9.64,0c0-0.13-0.055-0.261-0.154-0.392L88.354,70.683z"></path></svg>