<svg
  xmlns="http://www.w3.org/2000/svg"
  xmlns:xlink="http://www.w3.org/1999/xlink"
  version="1.1"
  viewBox="0 0 100 100"
>
  <path d="M71,27.7c-3.3-2-7.1-2.9-11-2.7c-3.7,0.2-7.2,1.5-10.1,3.7c-2.9-2.2-6.4-3.5-10.1-3.7c-3.9-0.3-7.6,0.7-11,2.7  c-8.8,5.3-11.6,16.7-6.2,25.4c2.4,4,7,8.4,13.7,13.2c5.3,3.8,10.4,6.8,12.5,8c0.4,0.3,0.7,0.4,0.9,0.5L50,75l0.2-0.1  c0.1-0.1,0.5-0.3,0.9-0.5c2.2-1.3,7.2-4.2,12.5-8c6.7-4.8,11.3-9.3,13.7-13.2C82.6,44.4,79.8,33,71,27.7z M76.7,52.8  c-2.6,4.2-9.2,11.2-26,21c-0.3,0.2-0.6,0.3-0.7,0.4c-0.2-0.1-0.4-0.2-0.7-0.4c-16.8-9.8-23.4-16.9-26-21c-5.2-8.4-2.5-19.4,6-24.5  c2.9-1.7,6.1-2.6,9.4-2.6c4,0,7.9,1.3,11.1,3.8l0.2,0.2l0.2-0.2c5.9-4.6,14.1-5,20.5-1.2C79.2,33.4,81.9,44.4,76.7,52.8z"></path>
</svg>