<svg version="1" xmlns="http://www.w3.org/2000/svg" width="933.333" height="933.333" viewBox="0 0 700.000000 700.000000"><path d="M504.9 40.4c-.2.2-2.3.6-4.6 1-6.4.8-19 5.3-26.2 9.2-49.1 26.9-61.7 91.7-26.2 134.4 6.4 7.6 11.5 12.3 19.1 17.3 9.7 6.5 22.7 12 31.1 13.2 5.4.8 5.7 1.1 3.9 3.8-8.7 13.8-16.4 39.4-18.6 62.2-.3 3.8-.8 7.3-1 7.7-.4.7-1.3 17.9-1.4 25.3 0 2.2-1.7 5.1-6.1 10.5-3.3 4.1-7.5 9.3-9.2 11.5-4.5 5.6-10 11.9-11.2 12.7-2.7 2-14.7-15.3-24.5-35.5-5-10.4-5.2-11.1-4.3-15.6 2-10.3-3-16.2-14.2-16.6-4.1-.1-9 2.3-10.6 5.2-1.5 2.9-1.9 9.8-.7 13.1.7 1.9-.5 4.8-6.3 15.4-10.6 19.6-20.6 35.7-22.1 35.8-.5 0-.8-.6-.8-1.3 0-.7-.8-1.7-1.9-2.4-2-1.2-23.3-32.9-31.8-47.3-2.8-4.7-7.4-13.1-10.3-18.7l-5.2-10.3.5-17.2c.4-9.5.6-18.4.7-19.8v-2.5l11.8-.1c9.4-.1 13.7-.6 21.7-2.8 18.7-5 36.2-16.6 47-31.1 1.7-2.2 3.2-4.2 3.5-4.5 2.9-2.8 9.8-18.1 12-26.5 3.1-11.5 4.2-27.4 2.5-35.5-.2-1.4-.7-4.1-1-6-1.7-10.3-8.4-25.1-15.8-34.9-14-18.3-35.3-31.5-56.2-34.8-6.3-.9-22.4-1-29.1 0-6.7.9-19 5-26.3 8.7-6.3 3.1-18.1 11.6-21.9 15.7-1.3 1.4-2.4 2.4-2.5 2.2-8.6-13.1-22-23.4-36-27.6-7.5-2.2-8.5-2.4-16.9-2.7-18.8-.7-38.5 11.8-53.5 34-6.6 9.8-12.9 22.2-18.3 35.9-8.4 21.6-13.7 30-27.3 43.9-9.2 9.4-14.4 12.5-22 13.1-6.8.5-7.8.9-10.5 4.8-4.2 6.3-1.9 14.2 5.1 17.6 18.6 8.9 48.5 4.5 67.3-10 8.7-6.7 15.7-15 30.8-36.2 16.2-22.9 24.8-30.6 36.1-32.2 4.8-.6 12.7.7 18.4 3.2 4.1 1.7 4.2 1.9 3.5 5.3-.7 3.7-.7 23.7 0 24.9.2.3.7 2.5 1.1 4.8 2 13.7 11.9 32.3 23.2 43.7 4.4 4.5 15.1 13.3 17 14.1.1.1-1.3 5-3.1 11-10.9 36.4-26.8 67.6-52.6 103.5-4.5 6.3-8.7 11.9-9.4 12.5-.6.5-2.7 3-4.6 5.5-9.4 12.4-35.8 39.9-48.4 50.5-28.5 24.1-55.1 40.6-117.4 73.1-10.6 5.5-9.8 6.7 6.2 8.9 11.9 1.7 42.5 10.3 92.6 26 4.1 1.3 14.7 4.6 23.5 7.3 8.8 2.8 21.2 6.5 27.5 8.2 6.3 1.8 12 3.6 12.6 4.1 1.4 1.1.3 10.3-3 23.9-2.1 9.2-9.9 34.2-19.8 63.3-1.6 4.9-3.1 9.6-3.3 10.5-.2.9-1.3 4.9-2.4 8.8-3.5 12.2-6.2 25.7-5.7 27.9.3 1.1 1.4 3 2.5 4.2 1.9 2 2.8 2.1 23.3 1.9 17.5-.1 22-.5 25.1-1.8 3.5-1.6 3.7-1.9 3.3-5.3-.6-4.7-2.8-8-6.9-10.2-4.1-2.2-17.3-2.2-23.4.1-3.4 1.2-4.3 1.2-4.3.2 0-2.5 7.9-29 15-50.6 3.9-11.8 8.8-27.6 10.9-35 3.4-12.1 4.6-17.2 6.6-30.2.5-3.5.7-3.7 3.1-2.8 8.3 3.2 46.1 10 69.4 12.5 20.3 2.3 54.5 1.7 69.5-1.1 1.6-.3 3.9-.7 5-.9 1.1-.2 2.9-.4 4-.4 4.8-.3 4.8-1.2-.6-16.2-14.9-42-31.5-92.4-37-112.9-1.5-5.5-1.4-5.3-3.4-12-.8-3-1.9-7.3-2.4-9.5s-2-9-3.4-15c-1.4-6.1-2.8-12.1-3-13.5-.9-4.5-2-10.5-2.4-12.5-.2-1.1-.6-3.6-.9-5.5-.3-1.9-.7-4.2-.9-5-.2-.8-.7-3.8-1-6.5-.3-2.8-.8-6.4-1-8-.2-1.7-.7-5.3-1.1-8l-.6-5 10.4 15.5c13.5 20.4 17 24.9 23.3 31.2 7.7 7.7 15.6 9.3 23.1 4.7 4.6-2.8 18.1-23.1 27.4-41.1 1.9-3.7 3.7-6.4 4.1-6 .4.4 3.4 6.1 6.7 12.7 14.4 28.5 28 40.5 39.8 34.9 3.7-1.8 14.1-11.6 19.1-18.2 1.4-1.7 2.9-3.2 3.3-3.2.4 0 1 3 1.4 6.7.3 3.8.8 8.1 1 9.8.2 1.6.7 5.5 1 8.6.4 3.1.8 6.5 1 7.5.2 1.1.7 4.4 1.1 7.4.5 3 .9 6.2 1.1 7 .1.8.9 5.5 1.7 10.5.9 4.9 2.5 14.2 3.6 20.5 2.3 13.3 8.5 44.8 10.6 53.5.8 3.3 1.7 7.6 2 9.5.9 5.8 1.5 7 3.6 7.1 1 .1 2.7.2 3.7.3 5.8.7 17.6 1.7 23 2.1 3.5.2 6.6.6 7 .9.5.6.7 2.1 1.7 18.6.3 5.8.8 11.8 1 13.5.2 1.6.7 7.7 1.1 13.5.3 5.8.7 12.1.9 14 .1 1.9.6 8 1 13.5s.8 11.6 1 13.5c.2 1.9.6 8.2 1 14 .4 5.8.8 12.3 1 14.5 1.1 13.4 1.8 25 1.9 31.9.1 7.5 0 7.9-2.2 8.2-3.8.6-12.6 5.3-14.3 7.7-.9 1.2-1.9 3.2-2.3 4.4-.6 1.8-.1 2.3 4.1 3.6 11.2 3.6 39 3.8 58.4.4 2.9-.5 5-2.8 3.9-4.2-.5-.6-.8-1.4-.6-1.6.2-.2.7-4 1.1-8.4.4-4.4.8-9.1 1-10.5.2-1.4.6-5.4 1-9 .3-3.6.8-8.8 1.1-11.5.3-2.8.7-6.6.9-8.5.4-4.5 1.6-16.7 2-20 .1-1.4.6-6.1.9-10.5.4-4.4.9-8.7 1.1-9.5.2-.8.7-5.3 1-9.8.4-4.6.8-9.2 1-10.1.2-.9.6-5.7 1-10.7.4-4.9.9-9.2 1.1-9.5.2-.3.6-4.6.9-9.5.3-4.9.8-9.6 1-10.4.2-.8.7-5.3 1-10 .4-4.7.9-8.7 1-8.8.2-.2 3-.6 6.2-.9 3.2-.2 6.9-.6 8.3-.8 1.4-.2 4-.4 5.9-.4l3.3-.1-.6-8.8c-2.7-36.5-19.5-108.2-41.8-178.2-12.3-38.8-21.9-59.1-36.8-78.4-.8-1.1-4.5-5.1-8.2-9l-6.8-7 4.8-2c11.8-5 29.2-19.5 36.9-30.7 6.2-9.1 12.4-23.9 13.9-33.3.3-2.1.8-4.8 1-6 .7-3 .6-18.5-.1-23.1-1-6.5-3.5-15.6-6-21.8-2.3-5.5-8.7-17-11-19.3-.5-.6-2.9-3.4-5.2-6.2-4.8-5.5-16.1-14.5-23.8-18.7-6.1-3.3-18.6-8-24-9-4.4-.8-28.9-1.7-29.6-1.1z"/></svg>